<?xml version="1.0" encoding="UTF-8"?>
<svg xmlns="http://www.w3.org/2000/svg" xmlns:xlink="http://www.w3.org/1999/xlink" width="46px" height="30px" viewBox="0 0 162 105" version="1.1">
<g id="surface1">
<path style=" stroke:none;fill-rule:nonzero;fill:rgb(88.627451%,18.823529%,25.098039%);fill-opacity:1;" d="M 0 104.4375 C 1.425781 103.6875 2.851562 103.085938 4.351562 102.5625 C 11.101562 99.863281 17.476562 96.261719 23.25 91.835938 C 25.125 90.5625 26.773438 88.988281 28.199219 87.1875 C 29.851562 84.863281 29.699219 82.460938 28.199219 80.0625 C 26.175781 77.136719 24.449219 74.0625 22.949219 70.835938 C 20.851562 65.960938 19.273438 60.9375 19.050781 55.613281 C 18.75 47.886719 20.699219 40.3125 24.675781 33.636719 C 29.625 25.3125 36.074219 18.414062 44.476562 13.539062 C 50.398438 10.011719 56.925781 7.539062 63.675781 6.261719 C 68.699219 5.289062 73.875 4.613281 78.976562 4.238281 C 84.898438 3.9375 90.824219 3.488281 96.75 3.5625 C 100.875 3.636719 105 4.011719 109.050781 4.085938 C 112.050781 4.164062 114.976562 4.539062 117.976562 4.539062 C 119.625 4.539062 121.351562 4.914062 123.074219 4.988281 C 125.25 5.0625 127.351562 5.0625 129.523438 5.0625 C 132.226562 5.0625 134.925781 5.136719 137.550781 4.988281 C 142.425781 4.6875 147.226562 3.9375 151.949219 2.585938 C 154.351562 1.988281 156.675781 1.164062 158.925781 0.261719 C 159.074219 0.1875 159.226562 -0.0390625 159.375 0.1875 C 159.523438 0.414062 159.375 0.5625 159.300781 0.710938 C 158.925781 1.3125 158.398438 1.835938 157.875 2.289062 C 154.800781 4.613281 151.800781 7.011719 148.648438 9.1875 C 145.351562 11.585938 141.523438 12.863281 137.625 13.988281 C 131.476562 15.710938 125.101562 16.386719 118.726562 15.863281 C 114.449219 15.5625 110.175781 15.039062 105.898438 14.585938 C 100.5 14.0625 95.023438 13.914062 89.550781 14.210938 C 87.449219 14.363281 85.351562 14.210938 83.175781 14.363281 C 80.25 14.511719 77.398438 15.1875 74.476562 15.488281 C 69.601562 16.011719 64.800781 17.136719 60.226562 18.789062 C 51.824219 21.863281 44.398438 26.4375 39.074219 33.9375 C 35.476562 38.886719 33.148438 44.664062 32.324219 50.738281 C 31.574219 56.363281 32.699219 61.988281 35.550781 66.863281 C 38.699219 72.488281 43.050781 77.136719 47.625 81.488281 C 48.976562 82.835938 48.976562 83.511719 47.550781 84.863281 C 44.023438 88.386719 40.199219 91.613281 36.601562 95.0625 C 33.675781 97.835938 30.601562 100.386719 27.675781 103.011719 C 26.324219 104.289062 24.75 104.289062 23.101562 104.289062 C 18.824219 104.363281 14.550781 104.289062 10.273438 104.4375 C 7.351562 104.511719 4.351562 104.4375 1.425781 104.664062 C 1.050781 104.738281 0.523438 104.664062 0 104.4375 "/>
<path style=" stroke:none;fill-rule:nonzero;fill:rgb(12.156863%,38.823529%,67.45098%);fill-opacity:1;" d="M 144.148438 34.011719 C 144 31.386719 144.074219 28.761719 144.300781 26.136719 C 144.75 22.460938 145.800781 19.3125 148.875 14.511719 C 150.074219 12.710938 151.574219 11.0625 153.226562 9.636719 C 155.773438 7.3125 158.101562 4.613281 160.875 2.511719 C 161.023438 2.4375 161.101562 2.363281 161.25 2.210938 C 161.476562 2.0625 161.699219 1.914062 161.925781 2.0625 C 162.148438 2.210938 162 2.511719 161.925781 2.738281 C 161.175781 4.539062 160.425781 6.335938 159.75 8.136719 C 158.324219 12.113281 157.351562 16.164062 156.898438 20.363281 C 156 27.113281 156.675781 33.863281 156.824219 40.613281 C 156.824219 44.0625 156.601562 47.511719 156.074219 50.960938 C 155.324219 56.363281 153.375 61.386719 150.976562 66.261719 C 148.574219 71.289062 145.5 75.863281 141.898438 79.988281 C 139.425781 82.988281 136.574219 85.613281 133.351562 87.863281 C 126.601562 92.4375 119.476562 96.261719 111.523438 98.289062 C 103.800781 100.386719 95.773438 101.4375 87.75 101.511719 C 80.476562 101.363281 73.273438 100.6875 66.148438 99.335938 C 64.875 99.113281 63.523438 98.886719 62.25 98.511719 C 61.273438 98.363281 60.523438 97.460938 60.523438 96.488281 C 60.300781 94.085938 60.300781 91.6875 60.449219 89.363281 C 60.601562 88.011719 61.199219 87.5625 62.550781 87.789062 C 68.476562 88.761719 74.398438 89.8125 80.476562 90.113281 C 87.226562 90.488281 93.976562 90.113281 100.574219 88.914062 C 105.148438 88.085938 109.726562 86.8125 114.074219 85.164062 C 117.824219 83.585938 121.425781 81.5625 124.648438 79.085938 C 129.824219 75.414062 134.25 70.6875 137.476562 65.136719 C 140.175781 60.5625 141.75 55.539062 142.949219 50.363281 C 143.773438 46.386719 144.226562 42.414062 144.226562 38.363281 C 144.226562 36.863281 144.074219 35.363281 144 33.863281 "/>
<path style=" stroke:none;fill-rule:nonzero;fill:rgb(6.27451%,5.882353%,6.27451%);fill-opacity:1;" d="M 114.675781 58.238281 C 116.023438 56.4375 118.199219 55.539062 120.449219 55.6875 C 123.074219 55.835938 124.875 57.636719 125.101562 60.5625 C 125.398438 64.613281 125.175781 68.585938 125.25 72.636719 C 125.25 73.011719 125.101562 73.164062 124.726562 73.164062 C 123.148438 73.164062 121.5 73.164062 119.925781 73.164062 C 119.324219 73.164062 119.25 72.9375 119.25 72.414062 C 119.25 69.5625 119.25 66.710938 119.25 63.789062 C 119.25 63.335938 119.175781 62.886719 119.101562 62.4375 C 119.023438 61.539062 118.351562 60.789062 117.449219 60.789062 C 116.476562 60.710938 115.574219 61.238281 115.199219 62.136719 C 114.898438 62.960938 114.75 63.789062 114.75 64.6875 C 114.75 67.238281 114.75 69.789062 114.75 72.261719 C 114.75 72.863281 114.675781 73.164062 113.925781 73.164062 C 112.425781 73.085938 110.925781 73.164062 109.425781 73.164062 C 108.824219 73.164062 108.675781 73.011719 108.675781 72.414062 C 108.675781 64.988281 108.675781 57.636719 108.675781 50.210938 C 108.675781 49.613281 108.898438 49.539062 109.425781 49.539062 C 110.925781 49.539062 112.425781 49.539062 113.925781 49.539062 C 114.601562 49.539062 114.824219 49.6875 114.75 50.363281 C 114.675781 52.914062 114.75 55.460938 114.75 58.238281 "/>
<path style=" stroke:none;fill-rule:nonzero;fill:rgb(5.882353%,5.490196%,5.490196%);fill-opacity:1;" d="M 86.101562 68.738281 C 84.976562 70.914062 83.476562 72.5625 81.074219 73.164062 C 78.898438 73.6875 76.648438 73.761719 74.476562 73.3125 C 71.550781 72.710938 69.824219 70.835938 68.851562 68.0625 C 68.101562 65.8125 68.101562 63.335938 68.851562 61.164062 C 69.75 58.238281 72.375 56.136719 75.449219 55.835938 C 76.800781 55.613281 78.226562 55.6875 79.574219 55.914062 C 83.175781 56.289062 85.949219 59.210938 86.25 62.8125 C 86.398438 63.710938 86.398438 64.613281 86.476562 65.511719 C 86.550781 66.1875 86.324219 66.414062 85.648438 66.414062 C 82.273438 66.335938 78.824219 66.414062 75.449219 66.414062 C 74.625 66.414062 74.476562 66.636719 74.699219 67.386719 C 74.925781 68.511719 75.675781 69.414062 76.800781 69.710938 C 77.925781 70.085938 79.199219 69.636719 79.949219 68.738281 C 80.175781 68.4375 80.476562 68.289062 80.851562 68.363281 C 82.574219 68.363281 84.300781 68.585938 86.101562 68.738281 M 77.398438 63.113281 L 79.800781 63.113281 C 80.023438 63.113281 80.25 63.1875 80.324219 62.8125 C 80.476562 61.164062 79.273438 59.738281 77.625 59.664062 C 77.324219 59.664062 77.023438 59.664062 76.800781 59.738281 C 75.449219 60.1875 74.550781 61.386719 74.550781 62.8125 C 74.550781 63.1875 74.773438 63.1875 75 63.1875 L 77.398438 63.1875 "/>
<path style=" stroke:none;fill-rule:nonzero;fill:rgb(5.882353%,5.490196%,5.490196%);fill-opacity:1;" d="M 86.699219 39.863281 C 85.351562 42.414062 83.550781 44.0625 80.699219 44.4375 C 79.125 44.664062 77.550781 44.664062 75.976562 44.511719 C 72.449219 44.136719 70.351562 42.113281 69.375 38.8125 C 68.625 36.335938 68.773438 33.636719 69.824219 31.3125 C 71.324219 28.164062 74.550781 26.511719 78.601562 26.8125 C 79.199219 26.8125 79.726562 26.886719 80.25 26.960938 C 83.851562 27.636719 86.101562 29.960938 86.699219 33.710938 C 86.851562 34.6875 86.925781 35.664062 86.925781 36.636719 C 86.925781 37.238281 86.773438 37.386719 86.175781 37.386719 C 82.726562 37.386719 79.273438 37.386719 75.824219 37.386719 C 75 37.386719 74.925781 37.6875 75.148438 38.289062 C 75.375 39.335938 76.199219 40.238281 77.25 40.539062 C 78.375 40.914062 79.648438 40.539062 80.398438 39.5625 C 80.625 39.261719 81.074219 39.039062 81.449219 39.1875 C 83.175781 39.488281 84.824219 39.710938 86.699219 39.863281 M 77.925781 34.238281 L 80.324219 34.238281 C 80.550781 34.238281 80.851562 34.3125 80.851562 33.863281 C 80.851562 32.585938 80.101562 31.386719 78.898438 30.863281 C 77.101562 30.261719 75.300781 31.539062 75.074219 33.863281 C 75 34.3125 75.300781 34.238281 75.601562 34.238281 L 77.925781 34.238281 "/>
<path style=" stroke:none;fill-rule:nonzero;fill:rgb(6.27451%,5.882353%,6.27451%);fill-opacity:1;" d="M 66.375 31.386719 C 64.648438 31.539062 62.925781 31.761719 61.273438 31.988281 C 60.824219 32.0625 60.675781 31.835938 60.449219 31.539062 C 59.699219 30.414062 58.199219 29.960938 57 30.636719 C 56.550781 30.863281 56.25 31.3125 56.324219 31.835938 C 56.398438 32.289062 56.699219 32.664062 57.148438 32.8125 C 58.425781 33.113281 59.699219 33.414062 60.976562 33.5625 C 61.726562 33.710938 62.476562 33.863281 63.226562 34.085938 C 65.101562 34.613281 66.523438 36.261719 66.75 38.210938 C 67.050781 40.164062 66.226562 42.113281 64.648438 43.238281 C 63.898438 43.835938 63.074219 44.210938 62.175781 44.4375 C 59.550781 45.039062 56.851562 44.960938 54.226562 44.289062 C 52.273438 43.761719 50.851562 42.261719 50.324219 40.3125 C 50.175781 39.863281 50.175781 39.636719 50.773438 39.5625 C 52.351562 39.414062 53.925781 39.261719 55.425781 39.113281 C 55.875 38.960938 56.324219 39.261719 56.398438 39.710938 C 57.148438 41.136719 58.875 41.738281 60.300781 40.988281 C 60.375 40.988281 60.375 40.914062 60.449219 40.914062 C 60.976562 40.6875 61.351562 40.164062 61.273438 39.5625 C 61.199219 39.039062 60.824219 38.585938 60.226562 38.4375 C 58.875 38.136719 57.523438 37.835938 56.25 37.539062 C 55.648438 37.386719 55.050781 37.238281 54.449219 37.085938 C 51.824219 36.335938 50.324219 33.5625 51.074219 30.9375 C 51.523438 29.4375 52.648438 28.238281 54.074219 27.710938 C 55.800781 27.113281 57.675781 26.886719 59.550781 27.113281 C 60.226562 27.113281 60.898438 27.1875 61.574219 27.335938 C 64.125 27.488281 65.550781 29.0625 66.375 31.386719 "/>
<path style=" stroke:none;fill-rule:nonzero;fill:rgb(5.882353%,5.490196%,5.490196%);fill-opacity:1;" d="M 97.574219 55.6875 C 98.550781 55.6875 99.449219 55.761719 100.425781 55.914062 C 103.351562 56.511719 105.074219 58.238281 106.050781 61.011719 C 106.199219 61.539062 106.050781 61.613281 105.601562 61.6875 C 104.101562 61.914062 102.675781 62.0625 101.175781 62.289062 C 100.726562 62.363281 100.574219 62.289062 100.351562 61.835938 C 99.976562 60.789062 99 60.113281 97.949219 60.1875 C 96.75 60.039062 95.625 60.636719 95.101562 61.761719 C 94.199219 63.488281 94.125 65.585938 94.949219 67.386719 C 95.625 68.886719 97.425781 69.5625 98.925781 68.8125 C 99.601562 68.511719 100.125 67.914062 100.425781 67.238281 C 100.726562 66.488281 101.101562 66.414062 101.773438 66.488281 C 103.125 66.710938 104.550781 66.863281 105.976562 67.011719 C 106.5 67.085938 106.5 67.238281 106.425781 67.6875 C 105.601562 70.914062 102.824219 73.238281 99.523438 73.460938 C 97.949219 73.613281 96.375 73.539062 94.800781 73.238281 C 91.425781 72.636719 88.875 69.863281 88.648438 66.488281 C 88.273438 63.335938 88.574219 60.335938 91.050781 57.9375 C 92.773438 56.0625 95.101562 55.613281 97.574219 55.6875 "/>
<path style=" stroke:none;fill-rule:nonzero;fill:rgb(5.882353%,5.490196%,5.490196%);fill-opacity:1;" d="M 103.050781 27.1875 C 105.074219 27.1875 106.949219 27.1875 108.824219 27.1875 C 109.351562 27.1875 109.351562 27.5625 109.425781 27.863281 C 110.25 30.863281 111.148438 33.863281 111.976562 36.863281 C 112.050781 37.085938 112.125 37.386719 112.273438 37.835938 C 112.800781 35.960938 113.324219 34.3125 113.773438 32.738281 C 114.226562 31.164062 114.75 29.511719 115.199219 27.863281 C 115.351562 27.335938 115.5 27.1875 116.023438 27.1875 C 117.601562 27.1875 119.175781 27.1875 120.75 27.1875 C 121.273438 27.1875 121.425781 27.261719 121.199219 27.863281 C 119.101562 33.1875 117.074219 38.4375 115.050781 43.761719 C 114.976562 44.136719 114.601562 44.363281 114.226562 44.363281 C 112.875 44.363281 111.523438 44.289062 110.175781 44.363281 C 109.648438 44.363281 109.425781 44.136719 109.199219 43.6875 C 107.25 38.136719 105.148438 32.738281 103.050781 27.1875 "/>
<path style=" stroke:none;fill-rule:nonzero;fill:rgb(5.882353%,5.490196%,5.490196%);fill-opacity:1;" d="M 63 49.539062 C 63 51.5625 63 53.4375 63 55.3125 C 63 55.914062 63.148438 56.0625 63.75 56.0625 C 64.574219 56.0625 65.699219 55.761719 66.148438 56.210938 C 66.601562 56.664062 66.300781 57.863281 66.300781 58.6875 C 66.300781 60.863281 66.300781 60.9375 64.125 60.863281 C 63.226562 60.863281 62.925781 61.011719 62.925781 61.988281 C 63 63.636719 62.925781 65.289062 62.925781 67.011719 C 62.925781 68.738281 63.449219 69.113281 65.101562 68.664062 C 65.851562 68.4375 66.074219 68.585938 66.148438 69.414062 C 66.226562 70.386719 66.300781 71.4375 66.449219 72.414062 C 66.523438 72.789062 66.449219 73.011719 66 73.085938 C 64.351562 73.460938 62.625 73.539062 60.898438 73.386719 C 58.648438 73.164062 57.449219 71.960938 57.148438 69.636719 C 56.773438 67.238281 57 64.835938 57 62.363281 C 57 60.863281 57 60.863281 55.5 60.863281 C 54.898438 60.863281 54.824219 60.710938 54.824219 60.113281 C 54.824219 58.988281 54.898438 57.863281 54.824219 56.738281 C 54.824219 56.210938 54.976562 55.988281 55.5 56.0625 C 57.074219 56.0625 57.148438 55.988281 57 54.488281 C 56.851562 53.511719 57.375 52.460938 58.351562 52.164062 C 59.925781 51.414062 61.351562 50.511719 63 49.539062 "/>
<path style=" stroke:none;fill-rule:nonzero;fill:rgb(5.882353%,5.490196%,5.490196%);fill-opacity:1;" d="M 95.550781 29.664062 L 95.773438 29.210938 C 97.125 26.8125 99.074219 26.289062 101.476562 27.488281 C 101.925781 27.710938 102.074219 27.863281 101.851562 28.386719 C 101.324219 29.511719 100.875 30.789062 100.425781 31.914062 C 100.273438 32.363281 100.125 32.4375 99.675781 32.289062 C 97.875 31.6875 96.824219 32.210938 96.300781 34.085938 C 95.925781 35.4375 95.773438 36.863281 95.851562 38.210938 C 95.851562 40.011719 95.851562 41.886719 95.851562 43.6875 C 95.851562 44.210938 95.699219 44.4375 95.175781 44.363281 C 93.601562 44.363281 92.023438 44.363281 90.449219 44.363281 C 90 44.363281 89.851562 44.210938 89.851562 43.761719 C 89.851562 38.511719 89.851562 33.1875 89.851562 27.9375 C 89.851562 27.414062 90 27.261719 90.523438 27.335938 C 91.949219 27.335938 93.375 27.335938 94.800781 27.335938 C 95.324219 27.335938 95.476562 27.488281 95.476562 28.011719 C 95.476562 28.539062 95.476562 29.210938 95.476562 29.738281 L 95.550781 29.664062 "/>
<path style=" stroke:none;fill-rule:nonzero;fill:rgb(6.27451%,5.882353%,6.27451%);fill-opacity:1;" d="M 129.375 35.8125 C 129.375 38.4375 129.375 40.988281 129.375 43.613281 C 129.375 44.136719 129.226562 44.363281 128.699219 44.289062 C 127.125 44.289062 125.625 44.289062 124.050781 44.289062 C 123.523438 44.289062 123.300781 44.210938 123.300781 43.613281 C 123.300781 38.363281 123.300781 33.113281 123.300781 27.863281 C 123.300781 27.335938 123.449219 27.1875 123.976562 27.1875 C 125.550781 27.1875 127.125 27.1875 128.699219 27.1875 C 129.300781 27.1875 129.375 27.414062 129.375 27.9375 C 129.375 30.5625 129.375 33.1875 129.375 35.8125 "/>
<path style=" stroke:none;fill-rule:nonzero;fill:rgb(6.27451%,5.882353%,6.27451%);fill-opacity:1;" d="M 126.375 25.164062 C 125.550781 25.164062 124.726562 25.164062 123.898438 25.164062 C 123.449219 25.164062 123.300781 25.011719 123.300781 24.636719 C 123.300781 23.511719 123.300781 22.386719 123.300781 21.261719 C 123.300781 20.886719 123.375 20.738281 123.824219 20.738281 C 125.550781 20.738281 127.199219 20.738281 128.925781 20.738281 C 129.300781 20.738281 129.375 20.886719 129.375 21.1875 C 129.375 22.3125 129.375 23.511719 129.375 24.636719 C 129.375 25.085938 129.148438 25.164062 128.773438 25.164062 C 127.949219 25.164062 127.199219 25.164062 126.375 25.164062 "/>
</g>
</svg>
